#!OML:ASF E:\Style4\Style4.ASF
:FULLY-SPECIFIED
:DEGREES
975
root -0.191322 17.7216 -1.94094 -0.788939 -0.339145 1.45648
lowerback 6.55343 2.66513 -0.144454
upperback 1.96445 3.53647 0.0481142
thorax -1.65535 1.76421 -0.147441
lowerneck -6.03027 -5.81052 -7.54944
upperneck 8.03901 -7.49722 4.62873
head 3.84322 -3.72448 2.21971
rclavicle 1.635e-014 -8.54774e-015
rhumerus -12.5886 34.4944 -85.5638
rradius 51.4111
rwrist 7.77292
rhand -14.4512 8.70943
rfingers 7.12502
rthumb 11.694 -20.9442
lclavicle 1.635e-014 -8.54774e-015
lhumerus 13.4553 -40.5121 69.0366
lradius 91.7088
lwrist -17.2252
lhand -25.6945 29.5286
lfingers 7.12502
lthumb 0.840804 59.5067
rfemur -12.3705 0.577186 17.5025
rtibia 33.2117
rfoot -18.6378 -15.0138
rtoes -13.6122
lfemur -10.5171 -3.42291 -20.0096
ltibia 31.3983
lfoot -19.9043 8.66765
ltoes -14.139
976
root -0.187738 17.7212 -1.94098 -0.76962 -0.309309 1.42465
lowerback 6.54433 2.58004 -0.0571722
upperback 1.95372 3.42943 0.0690414
thorax -1.65753 1.71073 -0.166039
lowerneck -6.03322 -5.72691 -7.51838
upperneck 8.05544 -7.37614 4.50517
head 3.83552 -3.66947 2.18484
rclavicle -4.35587e-014 1.33186e-014
rhumerus -12.5803 34.7499 -85.5064
rradius 52.3529
rwrist 7.47843
rhand -14.5619 8.68957
rfingers 7.12502
rthumb 11.5872 -20.9701
lclavicle -4.35587e-014 1.33186e-014
lhumerus 12.91 -40.4184 69.361
lradius 91.4868
lwrist -17.1743
lhand -25.9465 29.5259
lfingers 7.12502
lthumb 0.597421 59.5048
rfemur -12.3754 0.527727 17.5244
rtibia 33.1831
rfoot -18.5951 -15.0275
rtoes -13.8602
lfemur -10.5517 -3.44261 -19.9914
ltibia 31.4074
lfoot -19.8206 8.78652
ltoes -14.9219
977
root -0.186073 17.7207 -1.94054 -0.788238 -0.325097 1.45669
lowerback 6.54744 2.49416 -0.065626
upperback 1.97426 3.31489 0.0834586
thorax -1.63958 1.65362 -0.137118
lowerneck -6.12105 -5.63034 -7.51924
upperneck 8.17128 -7.23402 4.41483
head 3.87337 -3.60286 2.16283
rclavicle 3.516e-014 1.23246e-014
rhumerus -12.3632 35.154 -85.3073
rradius 53.408
rwrist 7.20688
rhand -14.8156 8.68457
rfingers 7.12502
rthumb 11.3426 -20.9887
lclavicle 3.516e-014 1.23246e-014
lhumerus 12.1258 -40.2826 69.8085
lradius 91.1787
lwrist -17.2659
lhand -26.1248 29.6211
lfingers 7.12502
lthumb 0.425185 59.6004
rfemur -12.3352 0.577439 17.4848
rtibia 33.1603
rfoot -18.6061 -15.0381
rtoes -13.7589
lfemur -10.5309 -3.42759 -20.0359
ltibia 31.4187
lfoot -19.796 8.8226
ltoes -15.1168
978
root -0.185515 17.7214 -1.93838 -0.834485 -0.349477 1.48981
lowerback 6.54185 2.41729 -0.0803583
upperback 2.00286 3.21178 0.0898854
thorax -1.60829 1.60225 -0.113162
lowerneck -6.09998 -5.53453 -7.43302
upperneck 8.18703 -7.10315 4.28657
head 3.85909 -3.54196 2.11911
rclavicle 1.68222e-014 1.59028e-014
rhumerus -11.9969 35.452 -85.044
rradius 54.5308
rwrist 7.09967
rhand -14.9309 8.64606
rfingers 7.12502
rthumb 11.2314 -21.0333
lclavicle 1.68222e-014 1.59028e-014
lhumerus 11.235 -40.1911 70.2784
lradius 90.8134
lwrist -17.3312
lhand -26.0884 29.7089
lfingers 7.12502
lthumb 0.460383 59.6882
rfemur -12.2567 0.602389 17.4464
rtibia 33.1268
rfoot -18.5978 -15.0336
rtoes -13.6468
lfemur -10.4883 -3.40302 -20.0747
ltibia 31.478
lfoot -19.9245 8.6988
ltoes -14.2839
979
root -0.184802 17.7214 -1.94178 -0.830172 -0.441749 1.36029
lowerback 6.5638 2.35404 0.0491937
upperback 1.98443 3.13709 0.144096
thorax -1.63558 1.56475 -0.125501
lowerneck -6.05836 -5.42096 -7.13979
upperneck 8.21003 -6.95131 3.96191
head 3.82848 -3.47375 1.98484
rclavicle -1.49585e-014 -3.18055e-015
rhumerus -11.5973 35.5943 -84.7911
rradius 55.7015
rwrist 7.22933
rhand -15.3232 8.67074
rfingers 7.12502
rthumb 10.853 -21.0288
lclavicle -1.49585e-014 -3.18055e-015
lhumerus 10.2549 -40.1672 70.7755
lradius 90.3463
lwrist -17.4491
lhand -25.8285 29.8501
lfingers 7.12502
lthumb 0.71141 59.8286
rfemur -12.2695 0.744578 17.603
rtibia 33.0978
rfoot -18.581 -15.0837
rtoes -13.6415
lfemur -10.5273 -3.33194 -19.925
ltibia 31.535
lfoot -20.0002 8.69157
ltoes -14.1091
980
root -0.184124 17.7219 -1.94967 -0.794586 -0.613279 1.03724
lowerback 6.60819 2.27696 0.363431
upperback 1.93601 3.05742 0.249423
thorax -1.69951 1.52432 -0.189794
lowerneck -6.04031 -5.29235 -6.80241
upperneck 7.97932 -6.75812 3.44513
head 4.12797 -3.40472 1.98847
rclavicle 3.98812e-014 -4.77083e-015
rhumerus -11.1595 35.8256 -84.5306
rradius 57.0107
rwrist 7.4782
rhand -15.9855 8.40854
rfingers 7.12502
rthumb 10.2141 -21.3235
lclavicle 3.98812e-014 -4.77083e-015
lhumerus 9.10332 -40.1366 71.3254
lradius 89.786
lwrist -17.3216
lhand -25.829 29.6771
lfingers 7.12502
lthumb 0.710943 59.6557
rfemur -12.3246 0.941759 17.9863
rtibia 33.0511
rfoot -18.492 -15.0071
rtoes -13.2295
lfemur -10.6198 -3.19888 -19.5487
ltibia 31.5855
lfoot -19.9362 8.74125
ltoes -14.7023
981
root -0.18768 17.7259 -1.95036 -0.802571 -0.778899 0.938404
lowerback 6.63039 2.20234 0.409963
upperback 1.92341 2.96245 0.303134
thorax -1.72575 1.4767 -0.154475
lowerneck -6.08743 -5.18096 -6.64284
upperneck 8.11837 -6.60764 3.27905
head 4.16159 -3.33315 1.91087
rclavicle -3.97569e-016 1.19271e-014
rhumerus -10.5488 36.1511 -84.1363
rradius 58.3968
rwrist 7.54905
rhand -16.2977 8.35729
rfingers 7.12502
rthumb 9.91295 -21.3893
lclavicle -3.97569e-016 1.19271e-014
lhumerus 7.92835 -40.1065 71.8895
lradius 89.1214
lwrist -17.0643
lhand -25.9026 29.6513
lfingers 7.12502
lthumb 0.639831 59.63
rfemur -12.2434 1.13505 18.1314
rtibia 32.9911
rfoot -18.4772 -14.8003
rtoes -12.0842
lfemur -10.6008 -3.04986 -19.4143
ltibia 31.6138
lfoot -19.9362 8.79268
ltoes -15.1626
982
root -0.191081 17.7277 -1.94707 -0.906444 -1.02923 0.966717
lowerback 6.71836 2.16089 0.351792
upperback 1.93356 2.90392 0.312641
thorax -1.76783 1.44736 -0.111052
lowerneck -6.10836 -5.08947 -6.69709
upperneck 8.59725 -6.50868 3.49619
head 3.89973 -3.26497 1.79546
rclavicle 2.02015e-014 -1.55052e-014
rhumerus -9.81928 36.427 -83.6877
rradius 59.8465
rwrist 7.44728
rhand -16.2727 8.73702
rfingers 7.12502
rthumb 9.93707 -21.0084
lclavicle 2.02015e-014 -1.55052e-014
lhumerus 6.76473 -40.0596 72.5296
lradius 88.4287
lwrist -17.0081
lhand -25.4682 30.059
lfingers 7.12502
lthumb 1.05933 60.0361
rfemur -12.101 1.33454 18.1193
rtibia 32.9343
rfoot -18.4886 -14.783
rtoes -12.3266
lfemur -10.4187 -2.84203 -19.4377
ltibia 31.6149
lfoot -20.0526 8.84527
ltoes -15.1196
983
root -0.179511 17.7273 -1.94744 -0.971758 -1.19378 1.06446
lowerback 6.80625 2.09642 0.358943
upperback 1.93268 2.81862 0.295694
thorax -1.81663 1.40458 -0.129142
lowerneck -6.21384 -5.0278 -6.72045
upperneck 8.83014 -6.422 3.50578
head 3.9847 -3.22269 1.80228
rclavicle 1.3418e-014 -3.97569e-015
rhumerus -9.03974 36.6347 -83.1357
rradius 61.4154
rwrist 7.35453
rhand -16.6055 8.7666
rfingers 7.12502
rthumb 9.61598 -20.9939
lclavicle 1.3418e-014 -3.97569e-015
lhumerus 5.68847 -40.0796 73.1578
lradius 87.493
lwrist -16.8562
lhand -25.0677 30.5085
lfingers 7.12502
lthumb 1.44616 60.4833
rfemur -12.1325 1.31819 17.9491
rtibia 32.9176
rfoot -18.4274 -14.8683
rtoes -13.3671
lfemur -10.292 -2.80609 -19.6062
ltibia 31.5504
lfoot -20.0423 8.94862
ltoes -14.8777
984
root -0.16286 17.7264 -1.94836 -0.879336 -1.2747 1.1949
lowerback 6.71064 1.99729 0.384046
upperback 1.90204 2.68734 0.257308
thorax -1.79253 1.33918 -0.168811
lowerneck -6.31937 -4.96348 -6.71032
upperneck 9.08321 -6.33591 3.51891
head 4.07492 -3.17957 1.80486
rclavicle 3.75455e-014 3.97569e-015
rhumerus -8.19017 36.7824 -82.549
rradius 63.0799
rwrist 7.39389
rhand -16.8756 8.74159
rfingers 7.12502
rthumb 9.35542 -21.0308
lclavicle 3.75455e-014 3.97569e-015
lhumerus 4.46991 -40.1826 73.7902
lradius 86.3474
lwrist -16.5332
lhand -24.9763 30.8462
lfingers 7.12502
lthumb 1.5345 60.8204
rfemur -12.3142 1.20147 17.7212
rtibia 32.917
rfoot -18.3377 -14.801
rtoes -13.8413
lfemur -10.3562 -2.87529 -19.8247
ltibia 31.4756
lfoot -19.9851 9.0993
ltoes -14.9065
985
root -0.1525 17.7264 -1.9495 -0.790296 -1.4513 1.35667
lowerback 6.63911 1.94534 0.33296
upperback 1.86312 2.61331 0.194224
thorax -1.79251 1.30235 -0.19722
lowerneck -6.3665 -4.897 -6.58178
upperneck 9.24921 -6.25359 3.45661
head 4.12297 -3.13819 1.76793
rclavicle -1.23743e-014 3.97569e-016
rhumerus -7.28242 36.8201 -81.9686
rradius 64.7495
rwrist 7.37939
rhand -16.876 9.02539
rfingers 7.12502
rthumb 9.35498 -20.747
lclavicle -1.23743e-014 3.97569e-016
lhumerus 3.21912 -40.3783 74.4202
lradius 85.193
lwrist -16.0835
lhand -24.5152 30.8288
lfingers 7.12502
lthumb 1.9798 60.7994
rfemur -12.4807 1.21948 17.4888
rtibia 32.9502
rfoot -18.3509 -14.5785
rtoes -13.6852
lfemur -10.4005 -2.82692 -20.0449
ltibia 31.3993
lfoot -19.9798 9.24497
ltoes -15.1566
